<svg xmlns="http://www.w3.org/2000/svg" width="300" height="193.462" id="aadhaar"><path fill="#fab60f" d="m277.54 75.844-.003.001h.003c-1.623 2.455-2.213 5.409-2.708 8.489-.606 3.75-1.246 7.35-2.572 10.88-1.593 4.23-4.27 8.943-8.927 12.632a121.019 121.019 0 0 0-20.684-35.668c5.55-2.218 10.997-2.184 15.476-1.445 3.72.616 7.158 1.862 10.71 3.211 2.913 1.113 5.767 2.08 8.704 1.9zM223.494 21.8l-.002.003.004-.001c-.18 2.936.786 5.79 1.898 8.704 1.35 3.552 2.596 6.989 3.213 10.709.738 4.482.772 9.936-1.452 15.491a121.044 121.044 0 0 0-35.711-20.636c3.697-4.697 8.432-7.39 12.681-8.99 3.53-1.326 7.13-1.965 10.882-2.573 3.078-.494 6.033-1.082 8.487-2.707zm45.529 107.262c5.874.869 10.548 3.609 14.041 6.474 2.913 2.394 5.266 5.192 7.669 8.138 1.965 2.417 3.954 4.682 6.586 5.995H270.8a121.903 121.903 0 0 0-1.776-20.607zM75.843 21.802l.002.002V21.8c2.454 1.624 5.409 2.212 8.488 2.708 3.75.606 7.35 1.246 10.88 2.571 4.249 1.6 8.984 4.294 12.68 8.99a121.001 121.001 0 0 0-35.71 20.637c-2.224-5.555-2.192-11.009-1.451-15.492.616-3.72 1.862-7.157 3.211-10.71 1.112-2.913 2.08-5.767 1.9-8.703zM21.799 75.846l.003.001-.001-.002c2.936.179 5.79-.788 8.704-1.9 3.552-1.35 6.989-2.596 10.708-3.212 4.48-.738 9.927-.772 15.477 1.446a121.068 121.068 0 0 0-20.683 35.668c-4.658-3.69-7.334-8.402-8.928-12.633-1.326-3.53-1.965-7.13-2.572-10.88-.495-3.08-1.084-6.034-2.708-8.488zM2.02 149.67c2.633-1.313 4.62-3.577 6.587-5.995 2.4-2.945 4.755-5.743 7.667-8.136 3.494-2.867 8.165-5.607 14.04-6.475a121.79 121.79 0 0 0-1.773 20.606H2.02zM149.67 2.019v.003l.002-.003c1.312 2.634 3.577 4.621 5.996 6.59 2.945 2.4 5.744 4.754 8.137 7.666 2.883 3.516 5.64 8.224 6.49 14.152a121.84 121.84 0 0 0-20.624-1.757c-7.032 0-13.921.606-20.626 1.757.85-5.927 3.607-10.636 6.49-14.15 2.395-2.914 5.193-5.268 8.138-7.67 2.418-1.966 4.683-3.954 5.997-6.588z"></path><path fill="#d52736" d="m125.036 149.696 9.114-.026c1.197-7.698-1.144-13.625-8.93-12.21-6.562 1.191-13.61 7.71-17.87 12.21l12.016-.053c1.339-.88 3.96-1.885 5.036-1.137.402.28.613.678.634 1.216z"></path><path fill="#d52736" d="M166.022 149.67h11.37c.541-13.427-1.622-27.292-7.864-39.289-5.678-10.915-15.063-18.334-27.213-20.127-17.737-2.617-35.634 4.892-50.765 15.634-16.474 11.696-30.072 27.581-41.956 43.783l15.02-.022c13.522-19.166 44.623-48.263 67.502-48.453 7.29-.06 14.704 1.651 20.185 6.541 3.971 3.544 8.786 10.425 8.55 16.01-.14 3.311-3.079 4.327-5.897 3.3-2.189-.796-3.735-2.797-5.267-4.901-4.978-6.835-12.743-10.18-21.26-9.014-10.159 1.389-22.751 9.277-30.873 16.45-7.003 6.188-13.433 12.958-19.498 20.089h16.148c5.919-7.146 12.169-13.24 20.203-18.244 2.542-1.583 5.673-3.258 8.964-4.39 8.302-2.853 16.563-2.13 20.232 8.206 1.441 4.064 1.653 7.629 1.233 14.161v.267h10.98l.028-.336c.008-3.577-.07-5.988.253-9.533.277-3.056 1.227-6.222 4.065-6.598 6.031-1.264 5.742 12.154 5.86 16.467z"></path><path fill="#d52736" d="M189.347 149.67h11.465c.555-12.457-.513-27.216-4.544-40.103a71.855 71.855 0 0 0-2.737-7.366c-2.44-5.569-5.724-10.61-9.638-15.269-4.352-5.175-9.536-9.829-15.381-13.494a58.133 58.133 0 0 0-5.36-2.983v-.002a54.256 54.256 0 0 0-5.677-2.389l-.008-.003c-22.325-7.927-44.905-2.29-63.847 8.013a127.76 127.76 0 0 0-10.63 6.489 140.242 140.242 0 0 0-9.632 7.159h-.001l-.006.005a131.339 131.339 0 0 0-12.546 11.623c-.877.929-1.743 1.875-2.585 2.83-2.253 2.555-5.725 6.136-4.695 9.838.816 2.936 4.605 2.07 5.924 1.06 2.026-1.087 4.25-2.81 6.155-4.421 2.577-2.182 5.012-4.532 7.565-6.744 10.323-8.95 21.084-15.851 31.683-20.522a96.603 96.603 0 0 1 6.928-2.743 85.696 85.696 0 0 1 6.847-2.094l.01-.003c19.723-5.12 41.154-1.803 54.876 14.28 13.22 15.493 15.632 36.231 15.834 56.84zM47.1 132.158c1.232-1.15 2.487-2.65 3.795-4.31 1.83-2.322 2.014-4.57 1.29-6.192a4.236 4.236 0 0 0-1.15-1.531 3.972 3.972 0 0 0-1.655-.826c-1.491-.341-3.275.193-4.79 2.036-1.712 2.083-4.077 5.646-4.56 8.798a6.504 6.504 0 0 0-.054 1.703c.06.524.2 1.022.435 1.477l.002.004c.386.74 1.037 1.13 1.904 1.163.181.006.377-.002.585-.025.203-.022.423-.063.657-.117v.002l.012-.003c1.168-.28 2.336-1.066 3.529-2.18z"></path><path fill="#d52736" d="m218.025 149.674.081-.002h.041c1.2.066 3.282-.486 4.483-2.512.239-.405.445-.868.6-1.393.16-.535.27-1.142.316-1.823l.009-.14c.911-31.84-8.841-58.2-25.398-76.107a81.003 81.003 0 0 0-10.402-9.466 78.542 78.542 0 0 0-11.768-7.418h-.001l-.066-.032-.002-.002c-13.916-7.112-29.7-9.843-45.191-8.53a89.63 89.63 0 0 0-17.827 3.348l-.041.013c-15.932 4.713-30.758 14.068-42.84 26.342a111.303 111.303 0 0 0-9.814 11.418c8.473-7.31 17.563-13.722 27.071-18.817a122.948 122.948 0 0 1 6.455-3.224 113.734 113.734 0 0 1 6.567-2.796l.006-.002.006-.003c8.4-3.265 16.681-5.347 24.964-6.277 8.282-.93 16.57-.71 24.987.628 5.99.954 11.836 2.522 17.103 4.716 1.021.425 2.027.877 3.011 1.355.972.471 1.929.971 2.866 1.5h.001l.015.008-.001.001c18.543 10.154 31.425 30.988 37.099 54.512a117.433 117.433 0 0 1 3.262 28.247v.002l-.003.274c.095 2.547.968 4.679 2.464 5.638.278.178.58.318.901.408h.002c.328.093.676.14 1.044.134z"></path><path fill="#fab60f" d="M184.87 43.556c44.583 14.725 76.802 56.65 76.99 106.116H239.8c1.46-43.21-17.399-82.213-54.93-106.116z"></path><path fill="#d52736" d="M55.426 184.367h-8.923l-2.21 7.774h-7.111l9.41-29.774h9.01l9.675 29.774h-7.421l-2.43-7.774zm-7.907-5.037h6.847c-1.796-5.817-2.96-9.807-3.49-11.972h-.089l-1.413 5.655-1.855 6.317zm40.683 5.037h-8.924l-2.208 7.774h-7.112l9.408-29.774h9.013l9.674 29.774h-7.421l-2.43-7.774zm-7.908-5.037h6.847c-1.796-5.817-2.96-9.807-3.49-11.972h-.088l-1.413 5.655-1.856 6.317zm24.559 12.679v-29.244c2.945-.442 6.096-.663 9.453-.663 6.347 0 10.904 1.325 13.666 3.983 2.76 2.658 4.137 6.133 4.137 10.418 0 5.066-1.568 8.99-4.712 11.773-3.144 2.782-7.995 4.174-14.548 4.174-3.033 0-5.699-.147-7.996-.441zm6.847-24.385v19.393c.383.088 1.208.132 2.474.132 3.401 0 6.037-.898 7.9-2.687 1.863-1.79 2.79-4.351 2.79-7.694 0-3.063-.846-5.397-2.547-7.002-1.701-1.605-4.152-2.408-7.348-2.408-1.34 0-2.43.09-3.269.266zm27.74-5.257h6.847v11.441h11.706v-11.44h6.848v29.773h-6.848v-12.413h-11.706v12.413h-6.847v-29.774zm50.224 22h-8.923l-2.209 7.774h-7.112l9.41-29.774h9.011l9.675 29.774h-7.422l-2.43-7.774zm-7.907-5.037h6.847c-1.796-5.817-2.96-9.807-3.49-11.972h-.088l-1.414 5.655-1.855 6.317zm40.683 5.037h-8.924l-2.209 7.774h-7.112l9.409-29.774h9.012l9.674 29.774h-7.42l-2.43-7.774zm-7.908-5.037h6.847c-1.796-5.817-2.96-9.807-3.49-11.972h-.088l-1.414 5.655-1.855 6.317zm24.558 12.81v-29.375c2.505-.442 5.582-.663 9.234-.663 4.506 0 7.745.744 9.718 2.231 1.973 1.487 2.96 3.615 2.96 6.383 0 1.65-.494 3.137-1.488 4.47a7.954 7.954 0 0 1-3.857 2.819v.176c1.855.693 3.195 2.519 4.02 5.478 1.516 5.33 2.34 8.158 2.473 8.482h-6.98c-.588-1.104-1.295-3.416-2.12-6.936-.412-1.766-.972-3.003-1.678-3.71-.707-.707-1.841-1.06-3.402-1.06h-2.12v11.706h-6.76zm6.76-24.782v8.173h2.827c1.708 0 3.055-.39 4.042-1.163.987-.773 1.48-1.811 1.48-3.122 0-1.31-.442-2.327-1.333-3.04-.89-.715-2.157-1.068-3.791-1.068-1.605 0-2.68.074-3.225.22z"></path></svg>